<svg xmlns="http://www.w3.org/2000/svg" viewBox="0 0 537 537" xml:space="preserve" style="fill-rule:evenodd;clip-rule:evenodd;stroke-linecap:round;stroke-linejoin:round;stroke-miterlimit:1.5"><path d="M424.961 0H111.832C50.078 0 0 50.078 0 111.832v313.129c0 61.753 50.078 111.831 111.832 111.831h313.129c61.776 0 111.831-50.078 111.831-111.831V111.832C536.792 50.078 486.737 0 424.961 0ZM211.854 438.157c-71.125-23.641-122.389-90.718-122.389-169.761 0-98.837 80.117-178.931 178.931-178.931 98.815 0 178.931 80.094 178.931 178.931 0 79.021-51.197 146.075-122.254 169.761" style="fill:#1b3445;fill-rule:nonzero"/><circle cx="268.396" cy="268.396" r="179.152" style="fill:#fff"/><path d="M317.804 327.672s-8.776-14.882-11.218-14.883c-6.366 0-21.752.036-27.402 1.979-5.649 1.943-6.927.63-7.876-.098-.949-.729-4.636-3.687-1.298-8.767 3.338-5.079 3.235-4.986 3.235-4.986s-6.746-7.128-9.782-12.234c-1.32-2.22-4.826-8.879.161-12.949 4.705-3.841 8.1-.802 8.68-.521 2.74 1.328 11.5 9.836 17.735.126 5.356-8.342 5.684-15.149 11.665-27.342 12.59-25.666 29.207-32.922 59.957-31.793 25.471.935 41.733 20.822 46.505 21.106 4.893.292 11.381-3.925 17.382-5.044 4.557-.851 7.461 1.698 4.946 5.074-5.826 7.822-9.42 11.841-9.42 11.841s10.589-.415 9.85 1.616c-.739 2.032-6.793 11.783-14.282 10.574 0 0 17.651 48.498-28.319 70.563 0 0 16.365-2.048 33.671.92 13.328 2.285 36.4 17.309 45.529 16.899 20.707-.93 44.088-29.8 44.436-32.278 0 0 11.427 19.231 8.692 30.04-2.735 10.809-11.297 30.964-15.417 39.734-3.786 8.061-12.172 31.33-32.594 47.221-16.293 12.678-25.663 19.405-51.577 25.186-14.922 3.328-71.92 2.431-94.919-7.204-26.567-11.131-38.025-29.066-40.146-52.666-2.015-22.42 5.077-50.197 31.806-72.114" style="fill:#1b3445"/><path d="M363.161 157.845s-35.776-34.958-94.505-34.796c-88.668.244-146.296 73.223-145.85 145.347-.446 72.124 57.182 145.103 145.85 145.347 58.729.162 94.505-34.796 94.505-34.796" style="fill:none;stroke:#1b3445;stroke-width:14.58px"/><path d="M340.416 178.484s-24.353-25.231-70.826-25.103c-70.164.193-116.855 57.908-116.502 114.98-.353 57.073 46.338 114.857 116.502 115.051 46.473.128 70.55-25.104 70.55-25.104" style="fill:none;stroke:#1b3445;stroke-width:2.92px"/><path d="M323.693 203.289s-21.102-20.609-55.804-20.577c-52.393.047-86.524 42.926-86.339 85.365-.341 42.438 33.632 85.442 86.024 85.682 34.702.159 55.88-20.372 55.88-20.372" style="fill:none;stroke:#1b3445;stroke-width:14.58px"/><path d="m176.48 182.422 1.684-1.684-8.756-8.756 3.127-3.127 8.756 8.755 1.684-1.683c.378-.379 1.013-.358 1.417.046l3.958 3.958c.404.404.425 1.039.047 1.418l-6.495 6.495c-.379.378-1.014.357-1.418-.047l-3.958-3.958c-.404-.404-.425-1.039-.046-1.417ZM264.709 142.619h2.381v-12.383h4.423v12.383h2.382c.535 0 .969.464.969 1.035v5.598c0 .571-.434 1.035-.969 1.035h-9.186c-.535 0-.969-.464-.969-1.035v-5.598c0-.571.434-1.035.969-1.035ZM264.709 164.142h2.381v12.382h4.423v-12.382h2.382c.535 0 .969-.464.969-1.035v-5.598c0-.571-.434-1.035-.969-1.035h-9.186c-.535 0-.969.464-.969 1.035v5.598c0 .571.434 1.035.969 1.035ZM191.468 197.35l1.684-1.684 8.755 8.755 3.128-3.127-8.756-8.756 1.684-1.684c.378-.378.357-1.013-.046-1.417l-3.959-3.958c-.404-.404-1.039-.425-1.417-.046l-6.495 6.495c-.379.378-.358 1.013.046 1.417l3.959 3.958c.403.404 1.038.425 1.417.047ZM163.938 272.954v-2.381h12.383v-4.423h-12.383v-2.381c0-.535-.463-.97-1.034-.97h-5.599c-.571 0-1.034.435-1.034.97v9.185c0 .535.463.969 1.034.969h5.599c.571 0 1.034-.434 1.034-.969ZM197.963 345.938l-1.684-1.684 8.756-8.756-3.128-3.127-8.755 8.756-1.684-1.684c-.379-.378-1.014-.358-1.417.046l-3.959 3.959c-.404.404-.425 1.039-.046 1.417l6.495 6.495c.378.378 1.013.358 1.417-.046l3.959-3.959c.403-.404.424-1.039.046-1.417ZM273.895 372.33h-2.382v-12.383h-4.423v12.383h-2.381c-.535 0-.969.464-.969 1.035v5.598c0 .571.434 1.035.969 1.035h9.186c.535 0 .969-.464.969-1.035v-5.598c0-.571-.434-1.035-.969-1.035ZM273.895 393.853h-2.382v12.382h-4.423v-12.382h-2.381c-.535 0-.969-.464-.969-1.035v-5.598c0-.571.434-1.035.969-1.035h9.186c.535 0 .969.464.969 1.035v5.598c0 .571-.434 1.035-.969 1.035ZM182.975 360.866l-1.684-1.684-8.756 8.756-3.127-3.127 8.756-8.756-1.684-1.684c-.379-.378-.358-1.013.046-1.417l3.958-3.959c.404-.404 1.039-.424 1.418-.046l6.495 6.495c.378.378.357 1.013-.047 1.417l-3.958 3.959c-.404.403-1.039.424-1.417.046ZM142.237 272.954v-2.381h-12.383v-4.423h12.383v-2.381c0-.535.463-.97 1.034-.97h5.599c.571 0 1.034.435 1.034.97v9.185c0 .535-.463.969-1.034.969h-5.599c-.571 0-1.034-.434-1.034-.969Z" style="fill:#1b3445"/></svg>