<svg xmlns="http://www.w3.org/2000/svg" viewBox="0 0 423 423" xml:space="preserve" style="fill-rule:evenodd;clip-rule:evenodd;stroke-linecap:round;stroke-linejoin:round;stroke-miterlimit:1.5"><path d="M259.474 417.499c-15.415 3.583-31.481 5.477-47.986 5.477C94.765 422.976 0 328.212 0 211.488 0 94.765 94.765 0 211.488 0c116.724 0 211.488 94.765 211.488 211.488 0 28.574-5.679 55.832-15.966 80.699-5.188-2.169-10.087-3.901-14.2-4.607-20.43-3.503-39.749-1.085-39.749-1.085 54.268-26.048 33.431-83.301 33.431-83.301 8.841 1.428 15.988-10.083 16.86-12.481.872-2.399-11.628-1.908-11.628-1.908s4.242-4.745 11.12-13.979c2.969-3.985-.459-6.993-5.839-5.99-7.084 1.322-14.743 6.3-20.518 5.955-5.634-.336-24.831-23.811-54.9-24.915-36.301-1.333-55.916 7.232-70.779 37.53-7.061 14.394-7.447 22.431-13.77 32.278-7.361 11.463-17.702 1.419-20.937-.148-.684-.332-4.692-3.92-10.246.614-5.888 4.806-1.749 12.666-.191 15.287 3.584 6.027 11.548 14.442 11.548 14.442s.122-.11-3.819 5.886c-3.941 5.997.412 9.489 1.532 10.349 1.12.86 2.629 2.409 9.298.116 6.669-2.294 24.833-2.337 32.349-2.336 2.882.001 13.242 17.57 13.242 17.57-31.554 25.872-39.926 58.663-37.547 85.129 1.881 20.934 9.986 38.093 27.207 50.906Z" style="fill:#fff"/><path d="M323.358 80.983s-42.233-41.268-111.563-41.077c-104.672.289-172.702 86.44-172.175 171.582-.527 85.142 67.503 171.294 172.175 171.582 69.33.191 111.563-41.077 111.563-41.077" style="fill:none;stroke:#1b3445;stroke-width:14.58px"/><path d="M296.508 105.348s-28.749-29.786-83.61-29.635c-82.829.228-137.948 68.36-137.531 135.734-.417 67.374 54.702 135.588 137.531 135.817 54.861.151 83.284-29.635 83.284-29.635" style="fill:none;stroke:#1b3445;stroke-width:2.92px"/><path d="M276.766 134.629s-24.911-24.328-65.877-24.291c-61.85.056-102.141 50.674-101.922 100.773-.404 50.098 39.701 100.865 101.551 101.148 40.966.188 65.966-24.049 65.966-24.049" style="fill:none;stroke:#1b3445;stroke-width:14.58px"/><path d="m102.981 109.995 1.988-1.987-10.336-10.337 3.691-3.691 10.337 10.336 1.987-1.988c.447-.447 1.197-.422 1.673.055l4.673 4.673c.477.476.502 1.226.055 1.673l-7.667 7.667c-.447.447-1.197.422-1.673-.055l-4.673-4.673c-.477-.476-.502-1.226-.055-1.673ZM207.136 63.009h2.811V48.391h5.221v14.618h2.811c.632 0 1.144.547 1.144 1.221v6.609c0 .674-.512 1.221-1.144 1.221h-10.843c-.632 0-1.145-.547-1.145-1.221V64.23c0-.674.513-1.221 1.145-1.221ZM207.136 88.416h2.811v14.618h5.221V88.416h2.811c.632 0 1.144-.547 1.144-1.221v-6.609c0-.674-.512-1.222-1.144-1.222h-10.843c-.632 0-1.145.548-1.145 1.222v6.609c0 .674.513 1.221 1.145 1.221ZM120.674 127.618l1.988-1.988 10.336 10.336 3.692-3.692-10.336-10.336 1.988-1.988c.446-.446.422-1.196-.055-1.673l-4.673-4.673c-.477-.476-1.226-.501-1.673-.054l-7.667 7.667c-.447.447-.422 1.196.054 1.673l4.673 4.673c.477.477 1.227.501 1.673.055ZM88.176 216.869v-2.812h14.618v-5.221H88.176v-2.811c0-.631-.547-1.144-1.221-1.144h-6.609c-.674 0-1.222.513-1.222 1.144v10.844c0 .631.548 1.144 1.222 1.144h6.609c.674 0 1.221-.513 1.221-1.144ZM128.342 303.026l-1.988-1.988 10.336-10.336-3.692-3.692-10.336 10.337-1.988-1.988c-.446-.447-1.196-.422-1.673.054l-4.673 4.673c-.476.477-.501 1.227-.054 1.673l7.667 7.668c.447.446 1.196.422 1.673-.055l4.673-4.673c.477-.477.501-1.226.055-1.673ZM217.979 334.182h-2.811v-14.618h-5.221v14.618h-2.811c-.632 0-1.145.547-1.145 1.221v6.609c0 .674.513 1.222 1.145 1.222h10.843c.632 0 1.144-.548 1.144-1.222v-6.609c0-.674-.512-1.221-1.144-1.221ZM217.979 359.589h-2.811v14.618h-5.221v-14.618h-2.811c-.632 0-1.145-.547-1.145-1.221v-6.609c0-.674.513-1.221 1.145-1.221h10.843c.632 0 1.144.547 1.144 1.221v6.609c0 .674-.512 1.221-1.144 1.221ZM110.648 320.648l-1.987-1.987-10.337 10.336-3.691-3.692 10.336-10.336-1.988-1.988c-.447-.447-.422-1.196.055-1.673l4.673-4.673c.476-.477 1.226-.501 1.673-.055l7.667 7.668c.447.446.422 1.196-.055 1.673l-4.673 4.673c-.476.477-1.226.501-1.673.054ZM62.557 216.869v-2.812H47.94v-5.221h14.617v-2.811c0-.631.548-1.144 1.222-1.144h6.608c.675 0 1.222.513 1.222 1.144v10.844c0 .631-.547 1.144-1.222 1.144h-6.608c-.674 0-1.222-.513-1.222-1.144Z" style="fill:#1b3445"/></svg>