<svg xmlns="http://www.w3.org/2000/svg" viewBox="0 0 5953 1055" xml:space="preserve" style="fill-rule:evenodd;clip-rule:evenodd;stroke-linecap:round;stroke-linejoin:round;stroke-miterlimit:1.5"><circle cx="507.528" cy="507.528" r="507.528" style="fill:#fff"/><path d="M647.497 675.454s-24.861-42.162-31.779-42.163c-18.035-.002-61.624.1-77.628 5.604-16.005 5.505-19.626 1.788-22.315-.277-2.688-2.064-13.133-10.443-3.676-24.834 9.457-14.391 9.165-14.126 9.165-14.126s-19.112-20.195-27.713-34.659c-3.74-6.289-13.671-25.152.457-36.684 13.33-10.881 22.947-2.272 24.59-1.475 7.762 3.761 32.579 27.864 50.243.355 15.174-23.631 16.102-42.916 33.046-77.459 35.667-72.709 82.741-93.264 169.854-90.066 72.16 2.65 118.228 58.986 131.748 59.793 13.861.827 32.241-11.119 49.241-14.291 12.911-2.409 21.136 4.81 14.012 14.375-16.505 22.16-26.685 33.545-26.685 33.545s29.996-1.177 27.903 4.579c-2.093 5.755-19.243 33.379-40.46 29.953 0 0 50.004 137.394-80.228 199.903 0 0 46.362-5.802 95.391 2.606 37.758 6.475 103.118 49.036 128.981 47.874 58.66-2.636 124.899-84.421 125.883-91.443 0 0 32.374 54.48 24.625 85.102-7.748 30.622-32.004 87.72-43.675 112.564-10.727 22.837-34.483 88.757-92.337 133.774-46.158 35.918-72.702 54.976-146.117 71.352-42.272 9.429-203.743 6.889-268.898-20.408-75.264-31.532-107.725-82.343-113.733-149.2-5.708-63.513 14.382-142.207 90.105-204.294" style="fill:#1b3445"/><path d="M775.992 194.343S674.641 95.308 508.265 95.767c-251.192.691-414.45 207.437-413.186 411.761-1.264 204.323 161.994 411.069 413.186 411.761 166.376.458 267.727-98.577 267.727-98.577" style="fill:none;stroke:#1b3445;stroke-width:41.67px"/><path d="M711.556 252.812s-68.99-71.48-200.646-71.117c-198.771.548-331.046 164.05-330.046 325.734-1 161.684 131.275 325.384 330.046 325.931 131.656.363 199.864-71.117 199.864-71.117" style="fill:none;stroke:#1b3445;stroke-width:8.33px"/><path d="M664.181 323.082s-59.78-58.383-158.091-58.294c-148.427.134-245.118 121.608-244.593 241.835-.968 120.225 95.276 242.054 243.702 242.734 98.309.45 158.304-57.713 158.304-57.713" style="fill:none;stroke:#1b3445;stroke-width:35.42px"/><path d="m247.133 263.966 4.77-4.77-24.805-24.805 8.86-8.86 24.805 24.805 4.77-4.77c1.072-1.072 2.871-1.013 4.015.131l11.214 11.214c1.144 1.144 1.203 2.943.131 4.015l-18.4 18.4c-1.072 1.072-2.871 1.013-4.015-.131l-11.214-11.214c-1.144-1.144-1.203-2.943-.131-4.015ZM497.082 151.207h6.746v-35.079h12.53v35.079h6.746c1.516 0 2.746 1.314 2.746 2.932v15.859c0 1.618-1.23 2.932-2.746 2.932h-26.022c-1.515 0-2.746-1.314-2.746-2.932v-15.859c0-1.618 1.231-2.932 2.746-2.932ZM497.082 212.18h6.746v35.08h12.53v-35.08h6.746c1.516 0 2.746-1.313 2.746-2.931v-15.86c0-1.618-1.23-2.931-2.746-2.931h-26.022c-1.515 0-2.746 1.313-2.746 2.931v15.86c0 1.618 1.231 2.931 2.746 2.931ZM289.593 306.256l4.77-4.77 24.805 24.804 8.86-8.859-24.805-24.805 4.77-4.77c1.072-1.072 1.013-2.871-.131-4.015l-11.214-11.214c-1.144-1.144-2.943-1.203-4.015-.131l-18.4 18.4c-1.072 1.072-1.013 2.871.131 4.015l11.214 11.214c1.144 1.144 2.943 1.203 4.015.131ZM211.604 520.439v-6.746h35.08v-12.529h-35.08v-6.746c0-1.516-1.313-2.747-2.931-2.747h-15.86c-1.618 0-2.931 1.231-2.931 2.747v26.021c0 1.516 1.313 2.747 2.931 2.747h15.86c1.618 0 2.931-1.231 2.931-2.747ZM307.993 727.199l-4.77-4.77 24.805-24.805-8.86-8.859-24.805 24.805-4.77-4.771c-1.072-1.072-2.871-1.013-4.015.131l-11.214 11.215c-1.144 1.144-1.203 2.942-.131 4.014l18.4 18.4c1.072 1.072 2.871 1.013 4.015-.131l11.214-11.214c1.144-1.144 1.203-2.943.131-4.015ZM523.104 801.967h-6.746v-35.08h-12.53v35.08h-6.746c-1.515 0-2.746 1.313-2.746 2.931v15.86c0 1.618 1.231 2.931 2.746 2.931h26.022c1.516 0 2.746-1.313 2.746-2.931v-15.86c0-1.618-1.23-2.931-2.746-2.931ZM523.104 862.939h-6.746v35.08h-12.53v-35.08h-6.746c-1.515 0-2.746-1.313-2.746-2.931v-15.859c0-1.618 1.231-2.932 2.746-2.932h26.022c1.516 0 2.746 1.314 2.746 2.932v15.859c0 1.618-1.23 2.931-2.746 2.931ZM265.533 769.489l-4.77-4.77-24.805 24.805-8.86-8.86 24.805-24.805-4.77-4.77c-1.072-1.072-1.013-2.871.131-4.015l11.214-11.214c1.144-1.144 2.943-1.203 4.015-.131l18.4 18.4c1.072 1.072 1.013 2.871-.131 4.015l-11.214 11.214c-1.144 1.144-2.943 1.203-4.015.131ZM150.124 520.439v-6.746h-35.079v-12.529h35.079v-6.746c0-1.516 1.314-2.747 2.932-2.747h15.859c1.618 0 2.932 1.231 2.932 2.747v26.021c0 1.516-1.314 2.747-2.932 2.747h-15.859c-1.618 0-2.932-1.231-2.932-2.747Z" style="fill:#1b3445"/><g><path d="M1628.93 904.698c-57.672 0-111.225-10.299-160.658-30.896-49.434-20.597-92.688-49.433-129.763-86.508-37.075-37.076-65.537-80.33-85.385-129.763-19.848-49.434-29.772-102.612-29.772-159.535 0-56.924 9.924-110.102 29.772-159.536 19.848-49.433 48.31-92.5 85.385-129.201 37.075-36.7 80.142-65.536 129.201-86.508 49.059-20.972 102.799-31.458 161.22-31.458 62.916 0 118.341 10.299 166.276 30.896 47.936 20.597 90.254 48.872 126.954 84.823L1818.8 310.373c-21.721-23.967-48.31-42.692-79.768-56.174s-68.158-20.223-110.102-20.223c-36.7 0-70.218 6.179-100.552 18.538-30.334 12.358-56.736 30.334-79.206 53.927-22.469 23.593-39.696 51.68-51.68 84.262-11.984 32.581-17.976 68.345-17.976 107.293 0 39.696 5.992 75.648 17.976 107.854 11.984 32.207 29.211 60.107 51.68 83.7 22.47 23.593 48.872 41.756 79.206 54.489 30.334 12.733 63.852 19.1 100.552 19.1 44.191 0 82.202-6.741 114.034-20.223 31.832-13.482 58.609-32.581 80.33-57.298l103.36 103.361c-36.7 36.7-79.393 65.162-128.077 85.385-48.685 20.223-105.233 30.334-169.647 30.334ZM2017.66 81.182h147.177v812.281H2017.66zM2522.1 904.698c-49.434 0-93.999-12.358-133.695-37.075-39.697-24.717-70.78-58.421-93.25-101.114-22.47-42.692-33.704-90.628-33.704-143.806 0-53.928 11.234-102.238 33.704-144.93 22.47-42.693 53.553-76.397 93.25-101.114 39.696-24.717 84.261-37.075 133.695-37.075 38.947 0 73.775 7.864 104.484 23.593 30.709 15.729 55.238 37.637 73.588 65.724 18.351 28.087 28.275 59.732 29.773 94.935v195.487c-1.498 35.951-11.422 67.783-29.773 95.496-18.35 27.713-42.879 49.621-73.588 65.724-30.709 16.103-65.537 24.155-104.484 24.155Zm26.963-135.942c41.195 0 74.525-13.669 99.991-41.007 25.465-27.338 38.198-62.728 38.198-106.17 0-28.461-5.804-53.74-17.414-75.835-11.609-22.095-27.713-39.322-48.31-51.681-20.597-12.358-44.752-18.537-72.465-18.537-26.963 0-50.744 6.179-71.341 18.537-20.597 12.359-36.701 29.586-48.31 51.681-11.609 22.095-17.414 47.374-17.414 75.835 0 29.211 5.805 54.864 17.414 76.959 11.609 22.095 27.713 39.322 48.31 51.68 20.597 12.359 44.378 18.538 71.341 18.538Zm130.325 124.707V747.41l23.593-132.572-23.593-130.324V350.819h146.053v542.644h-146.053ZM3320.9 893.463V582.257c0-32.206-10.111-58.421-30.334-78.644-20.223-20.223-46.438-30.334-78.644-30.334-20.972 0-39.697 4.494-56.175 13.482-16.477 8.988-29.398 21.72-38.76 38.198-9.362 16.478-14.044 35.577-14.044 57.298l-57.297-29.211c0-42.692 9.175-79.954 27.525-111.786 18.35-31.833 43.816-56.737 76.397-74.712 32.581-17.976 69.469-26.964 110.664-26.964 39.696 0 75.273 9.924 106.731 29.772 31.458 19.849 56.174 45.689 74.15 77.521 17.976 31.832 26.964 66.098 26.964 102.799v343.787H3320.9Zm-365.133 0V350.819h147.176v542.644h-147.176ZM3602.9 893.463V103.652h152.794v789.811H3602.9Zm495.458 0V103.652h152.794v789.811h-152.794ZM3699.52 553.046V418.228h441.531v134.818H3699.52ZM4628.64 904.698c-47.935 0-90.441-10.111-127.516-30.334s-66.098-48.31-87.07-84.262c-20.972-35.951-31.458-77.52-31.458-124.707V350.819h148.301v311.206c0 22.469 3.745 41.756 11.234 57.859 7.49 16.104 18.725 28.275 33.705 36.514 14.98 8.239 32.581 12.358 52.804 12.358 30.709 0 54.676-9.362 71.903-28.087 17.227-18.725 25.84-44.94 25.84-78.644V350.819h147.177v314.576c0 47.936-10.298 89.879-30.896 125.831-20.597 35.951-49.433 63.851-86.508 83.7-37.075 19.848-79.581 29.772-127.516 29.772ZM5291.5 904.698c-38.947 0-74.15-8.239-105.607-24.717-31.458-16.478-56.549-38.947-75.274-67.409-18.725-28.462-28.836-60.294-30.334-95.496v-193.24c1.498-35.203 11.796-66.848 30.896-94.935 19.099-28.087 44.377-49.995 75.835-65.724 31.458-15.729 66.286-23.593 104.484-23.593 50.183 0 95.122 12.358 134.819 37.075 39.696 24.717 70.967 58.421 93.811 101.114 22.844 42.692 34.266 91.002 34.266 144.93 0 53.178-11.422 101.114-34.266 143.806-22.844 42.693-54.115 76.397-93.811 101.114-39.697 24.717-84.636 37.075-134.819 37.075Zm-24.716-135.942c26.963 0 50.744-6.179 71.341-18.538 20.597-12.358 36.701-29.585 48.31-51.68 11.609-22.095 17.414-47.748 17.414-76.959 0-28.461-5.805-53.74-17.414-75.835-11.609-22.095-27.9-39.322-48.872-51.681-20.971-12.358-44.939-18.537-71.903-18.537-26.963 0-50.744 6.179-71.341 18.537-20.598 12.359-36.701 29.586-48.31 51.681-11.61 22.095-17.414 47.374-17.414 75.835 0 29.211 5.804 54.864 17.414 76.959 11.609 22.095 27.9 39.322 48.872 51.68 20.971 12.359 44.939 18.538 71.903 18.538Zm-276.378 124.707V81.182h147.177v403.332l-24.717 130.324 23.593 132.572v146.053h-146.053Z" style="fill:#fff;fill-rule:nonzero"/></g><path style="fill:#e6c372" d="M5554.39 904.698h397.964v149.624H5554.39z"/></svg>